<svg width="224" height="204" viewBox="0 0 224 204" fill="none" xmlns="http://www.w3.org/2000/svg">
<g clip-path="url(#clip0_34_4748)">
<path d="M129.863 0C122.575 7.15484 115.194 15.2015 108.031 22.5983L82.9833 48.4539C82.9051 48.4925 82.8322 48.5303 82.7623 48.5642L71.9488 53.8706C61.3244 59.1011 50.7364 64.4108 40.1856 69.7992L26.9681 65.3474C23.7394 75.6076 19.8912 86.364 16.4348 96.5959L0.416872 143.728C5.27198 150.805 11.9692 161.131 17.2518 167.566C12.5523 176.826 8.6464 186.663 4.21575 196.074C2.994 198.668 1.75404 201.333 0.691747 203.997C4.24613 201.085 8.4467 198.098 12.1666 195.312L27.9795 183.363C31.382 180.812 36.0974 177.442 39.2418 174.691C37.8985 167.4 36.9714 159.15 36.0572 151.759L39.5584 153.463L56.7062 161.576C56.7244 170.024 57.9568 179.168 58.2157 187.681C58.3706 192.769 58.8505 198.463 59.3486 203.54L75.8403 154.016C69.0117 148.253 62.0731 142.63 55.0311 137.149C51.6552 134.485 47.2283 130.812 43.74 128.525C46.4697 119.491 50.0818 110.112 52.9551 100.902C60.7313 96.6406 68.7855 89.5598 76.3164 84.5584C77.2883 83.9123 78.3112 83.2115 79.3575 82.4752C80.8139 84.2429 82.2725 86.0076 83.7388 87.7655L115.59 126.511L136.075 151.36L142.629 159.331C143.754 160.709 145.118 162.496 146.293 163.785L170.096 139.104L224 83.3586C223.14 82.5358 221.966 81.5735 221.044 80.7681L215.115 75.5898C209.8 70.8543 204.457 66.1522 199.086 61.4845L156.667 23.7988L142.994 11.6428C140.822 9.71768 138.443 7.7178 136.336 5.75661C134.482 4.29823 131.737 1.66968 129.863 0ZM134.427 106.958L150.313 124.941L156.086 131.488C157.024 132.56 158.318 133.958 159.175 135.068C158.827 135.411 158.371 135.89 158.018 136.206C156.09 137.984 154.194 139.799 152.33 141.648L105.892 88.6247L92.2212 73.0266L86.344 66.4153C85.4101 65.3614 84.161 64.0139 83.2969 62.9376L84.5816 61.623C86.2765 59.8623 88.1193 58.0131 89.7625 56.2182L134.427 106.958ZM108.093 37.4872C108.897 38.317 110.116 39.5764 110.873 40.357L123.88 53.8083L158.993 90.1263L172.521 104.108C175.223 106.901 178.162 109.845 180.768 112.705L174.324 119.371L133.132 76.7002L112.427 55.2377C108.843 51.5255 105.175 47.6322 101.552 43.9866L107.897 37.459C107.962 37.4681 108.028 37.478 108.093 37.4872ZM180.914 69.2563L194.408 81.9928C196.854 84.3203 200.265 87.7321 202.833 89.848L196.529 96.9796L120.381 24.5232C121.133 23.7511 126.511 18.0446 126.913 18.0259L180.914 69.2563ZM68.7741 69.5111C69.5493 70.4505 70.3231 71.3854 71.0581 72.289C72.3482 73.8927 73.6459 75.4909 74.9443 77.087C70.1629 77.9409 65.3791 78.7804 60.5931 79.6032C62.9744 76.3764 66.1127 72.8173 68.6617 69.6503C68.6989 69.6037 68.7369 69.5576 68.7741 69.5111ZM44.008 28.4416C36.4839 27.7432 29.8231 33.4522 29.0912 41.2279C28.3584 49.0037 33.827 55.9354 41.3405 56.7522C48.9353 57.5784 55.7266 51.8471 56.467 43.9866C57.2081 36.1264 51.6142 29.1474 44.008 28.4416Z" fill="#FFFF00"/>
</g>
<defs>
<clipPath id="clip0_34_4748">
<rect width="224" height="204" fill="white" transform="matrix(-1 0 0 1 224 0)"/>
</clipPath>
</defs>
</svg>
