<svg width="295" height="269" viewBox="0 0 295 269" fill="none" xmlns="http://www.w3.org/2000/svg">
<path d="M123.975 0C133.573 9.43457 143.294 20.0451 152.727 29.7988L185.714 63.8926C185.817 63.9435 185.913 63.9934 186.005 64.0381L200.246 71.0352C214.238 77.9323 228.182 84.9338 242.077 92.0391L259.484 86.1689C263.736 99.6982 268.804 113.882 273.356 127.374L294.451 189.524C288.057 198.855 279.237 212.472 272.28 220.957C278.469 233.167 283.613 246.139 289.448 258.548C291.057 261.969 292.69 265.483 294.089 268.996C289.408 265.156 283.876 261.217 278.977 257.544L258.152 241.787C253.671 238.424 247.461 233.98 243.32 230.352C245.089 220.738 246.31 209.859 247.514 200.114L242.903 202.361L220.32 213.059C220.296 224.198 218.673 236.256 218.332 247.481C218.128 254.19 217.496 261.699 216.84 268.393L195.121 203.09C204.114 195.491 213.252 188.076 222.526 180.849C226.972 177.335 232.802 172.492 237.396 169.476C233.801 157.564 229.044 145.197 225.26 133.052C215.019 127.433 204.412 118.096 194.494 111.501C193.214 110.649 191.867 109.725 190.489 108.754C188.571 111.085 186.65 113.412 184.719 115.73L142.772 166.821L115.794 199.588L107.163 210.098C105.681 211.915 103.885 214.272 102.337 215.972L70.9893 183.426L0 109.919C1.13308 108.834 2.67881 107.565 3.89258 106.503L11.7012 99.6748C18.7009 93.4304 25.7372 87.2301 32.8105 81.0752L88.6748 31.3818L106.682 15.3525C109.543 12.814 112.675 10.1769 115.45 7.59082C117.892 5.66777 121.507 2.20168 123.975 0ZM117.964 141.038L97.043 164.751L89.4404 173.384C88.2047 174.797 86.5003 176.641 85.3721 178.104C85.8308 178.557 86.431 179.188 86.8965 179.605C89.4349 181.95 91.9324 184.343 94.3867 186.781L155.544 116.863L173.548 96.2949L181.288 87.5771C182.518 86.1873 184.163 84.4105 185.301 82.9912L183.609 81.2578C181.377 78.9361 178.95 76.4977 176.786 74.1309L117.964 141.038ZM152.645 49.4316C151.586 50.5258 149.981 52.1865 148.984 53.2158L131.854 70.9531L85.6113 118.843L67.7959 137.279C64.2372 140.963 60.3672 144.844 56.9355 148.616L65.4219 157.406L119.67 101.139L146.938 72.8379C151.658 67.9429 156.488 62.8091 161.26 58.002L152.904 49.3945C152.818 49.4065 152.731 49.4195 152.645 49.4316ZM56.7422 91.3232L38.9717 108.118C35.7502 111.187 31.2581 115.686 27.876 118.476L36.1777 127.88L136.462 32.3369C135.472 31.3189 128.389 23.7941 127.86 23.7695L56.7422 91.3232ZM204.427 91.6592C203.406 92.8979 202.387 94.1307 201.419 95.3223C199.72 97.4369 198.011 99.5444 196.301 101.649C202.598 102.775 208.898 103.882 215.201 104.967C212.065 100.712 207.932 96.0189 204.575 91.8428C204.526 91.7814 204.476 91.7205 204.427 91.6592ZM237.043 37.5039C246.952 36.583 255.724 44.111 256.688 54.3643C257.653 64.6176 250.451 73.758 240.556 74.835C230.554 75.9245 221.61 68.367 220.635 58.002C219.659 47.6373 227.026 38.4346 237.043 37.5039Z" fill="#FFFF00"/>
</svg>
