<svg width="390" height="374" viewBox="0 0 390 374" fill="none" xmlns="http://www.w3.org/2000/svg">
<path d="M389.113 342.089C364.941 343.218 351.561 354.646 341.665 363.094C333.554 370.024 329.479 373.496 319.278 373.496C309.064 373.496 304.996 370.024 296.885 363.094C286.463 354.197 272.181 342.005 245.511 342.005C218.841 342.005 204.566 354.198 194.138 363.094C186.033 370.024 181.958 373.496 171.751 373.496C168.519 373.496 165.891 373.145 163.561 372.451C165.138 364.671 165.346 359.59 165.346 359.59C165.398 359.583 165.45 359.583 165.501 359.577C164.651 324.277 160.596 285.291 149.837 250.523C149.837 250.516 139.422 223.036 134.776 239.134C130.123 255.24 126.405 261.45 118.962 257.732C111.525 254.014 110.598 237.278 110.598 237.278C97.5804 150.806 32.1711 120.625 32.1711 120.625L28.07 119.58C22.1519 116.557 16.7143 107.089 12.1654 92.8976C7.61001 78.706 3.95026 59.7905 1.58196 37.8906C1.56267 37.7544 1.55624 37.6181 1.53636 37.4819C1.41944 36.3723 1.3025 35.2563 1.19259 34.1274C1.17973 34.0233 1.17334 33.9198 1.16048 33.8158C1.03713 32.5571 0.913786 31.285 0.797447 30.007L0.778107 29.7346C0.654752 28.4303 0.544251 27.1195 0.434342 25.796C0.434342 25.7504 0.427927 25.7182 0.421496 25.6726C0.311003 24.3227 0.207556 22.9599 0.103494 21.5843C0.0643242 21.0652 0.0321688 20.546 1.46347e-05 20.0269C7.47499 17.2949 18.7208 13.5119 32.1788 9.96264C42.2044 7.31489 53.4496 4.80392 65.2987 2.96763C100.19 -2.45065 140.188 -2.04842 168.87 17.9573C173.957 21.5001 181.75 32.6483 173.302 41.0972C155.866 58.5201 135.412 36.4963 95.6347 27.9766C95.6347 27.9766 78.0885 25.368 78.0564 32.2531C78.0242 39.0534 92.6567 45.8087 93.0005 45.9642C266.367 108.537 350.101 244.813 389.113 342.089Z" fill="#66AA39"/>
<path d="M140.351 96.1177C140.351 96.1177 271.456 169.729 327.245 306.249C327.245 306.249 257.509 192.062 140.351 96.1177Z" fill="#84CE55"/>
<path d="M65.7474 89.4365C65.7474 89.4365 172.895 156.384 190.561 287.488C190.561 287.488 163.161 192.647 65.7474 89.4365Z" fill="#84CE55"/>
<path d="M180.333 166.725C180.333 166.725 224.686 230.914 269.039 320.032C269.039 320.032 257.654 237.112 180.333 166.725Z" fill="#84CE55"/>
</svg>
