<svg width="739" height="702" viewBox="0 0 739 702" fill="none" xmlns="http://www.w3.org/2000/svg">
<path fill-rule="evenodd" clip-rule="evenodd" d="M39.1006 393.718C36.86 399.915 35.1437 404.682 33.2368 409.974C26.9438 410.642 21.3183 411.261 15.5022 411.834C14.0243 409.593 12.9754 407.829 11.7359 406.256C6.8255 400.01 9.20922 394.29 13.1185 388.903C16.9324 383.658 22.4149 382.324 28.5648 384.087C30.0427 384.517 31.5205 385.851 32.903 385.756C34.7623 385.613 37.6705 384.898 38.0995 383.658C38.91 381.561 39.0052 378.319 37.9564 376.507C36.7646 374.505 34.0472 372.646 31.7112 372.264C26.038 371.406 20.2695 371.263 14.5487 371.216C11.4499 371.216 8.2081 372.598 5.25233 371.978C3.20237 371.549 1.00937 369.118 0.103566 367.068C-0.420845 365.828 1.15234 362.348 2.43953 361.967C13.3091 358.868 17.3615 349.762 21.9381 340.943C23.13 338.607 25.1799 336.748 26.3241 334.412C31.0915 324.591 38.8146 319.204 49.5888 317.916C52.1632 317.63 54.6423 316.772 57.312 316.152C56.883 313.197 56.5492 310.718 56.1678 307.857C64.9398 299.228 76.6199 293.698 84.2 283.544C84.6767 282.924 84.2 281.541 84.1046 280.683C81.2919 276.011 74.6176 280.683 71.4711 275.058C73.9025 273.246 76.1908 271.482 78.3838 269.814C78.5268 268.669 79.0989 267.287 78.6698 266.667C73.9978 260.088 74.3315 252.317 75.2373 245.262C77.5733 226.955 67.1328 215.704 54.976 205.263C50.2086 201.163 44.4878 198.208 39.625 194.251C32.6647 188.578 31.1868 182.857 34.7147 174.657C37.4321 168.412 40.9599 162.5 44.2494 156.493C48.0156 149.628 51.9249 142.811 55.8818 135.994C57.2167 133.753 58.7899 131.608 60.5061 129.653C63.891 125.887 67.8955 123.694 73.1396 125.601C80.7198 128.413 87.5372 127.412 93.5917 121.834C94.7359 120.786 96.3091 120.213 97.7393 119.594C105.415 116.4 110.659 111.203 113.567 103.194C117.19 93.3255 124.627 86.9372 133.924 82.2652C138.786 79.8339 142.982 79.8338 147.129 83.0757C150.848 85.9838 154.423 89.0825 157.903 92.229C163.72 97.4731 168.678 103.48 176.067 107.151C182.98 110.583 184.887 117.782 182.026 124.647C180.644 128.032 178.737 131.274 176.735 134.325C172.968 140.093 169.059 140.284 164.626 134.563C162.909 132.323 161.574 130.368 158.523 130.892C154.757 131.512 152.993 134.325 153.231 137.614C154.137 151.011 156.33 163.692 170.823 169.89C176.115 172.178 179.309 176.087 176.592 182.475C176.019 183.858 175.257 186.194 175.924 186.957C180.93 192.821 176.639 199.018 176.496 204.691C180.215 208.601 183.504 211.795 188.987 210.364C190.465 209.983 192.133 210.174 193.659 210.317C196.567 210.603 198.903 212.176 198.855 215.132C198.855 216.896 197.377 218.898 195.995 220.185C194.994 221.139 192.944 220.853 191.609 221.615C189.845 222.569 187.366 223.618 186.841 225.239C183.981 233.629 177.211 238.873 171.92 245.309C170.632 246.835 169.727 248.789 168.201 251.268C173.874 257.561 178.832 264.426 185.125 269.671C191.037 274.629 195.089 280.349 198.092 287.167C200.858 293.46 204.433 299.085 209.439 303.996C213.396 307.905 216.065 313.101 219.593 318.202C225.362 319.966 232.131 322.064 239.807 324.448C240.474 319.251 240.951 315.151 241.571 311.099C242.524 304.806 244.813 299.038 248.674 293.841C256.922 282.686 269.937 279.539 281.951 286.118C284.239 287.405 286.67 288.549 288.673 290.218C295.395 295.891 299.923 302.565 298.541 312.052C297.778 317.201 297.397 322.445 296.825 328.119C298.732 330.979 301.687 334.078 302.975 337.796C304.643 342.754 298.303 344.089 296.825 347.951C298.541 358.01 303.165 366.496 310.984 374.267C312.891 372.693 315.036 371.788 315.751 370.167C321.424 357.915 334.01 359.488 343.974 355.912C349.933 358.82 357.466 358.439 361.804 364.78C363.568 367.402 365.666 369.738 367.716 372.312C370.242 395.672 370.099 396.769 363.759 409.021C367.191 412.549 371.768 415.648 373.913 419.938C375.868 423.847 375.296 429.044 375.82 433.954C370.338 438.006 365.427 441.677 360.421 445.396C352.222 442.44 348.741 435.909 345.833 429.234C344.927 427.137 345.5 423.943 346.358 421.654C347.597 418.365 349.79 415.457 351.888 411.786C341.257 409.307 329.529 414.408 319.279 406.208C317.896 408.878 315.513 411.452 315.417 414.122C315.036 426.04 307.265 434.479 301.735 443.727C296.11 453.071 288.529 461.605 278.947 467.421C268.84 473.523 258.209 477.337 246.577 470.091C240.093 466.086 232.894 465.419 225.457 468.327C219.164 470.806 211.87 468.994 205.625 472.951C203.861 474.048 200.142 473.619 198.14 472.475C191.132 468.565 183.886 466.039 175.829 465.419C171.3 465.037 168.773 462.463 169.154 458.172C170.251 446.063 165.007 435.575 161.574 424.61C159.429 417.745 154.948 412.501 148.703 409.307C145.127 407.495 140.36 405.541 136.784 406.399C127.202 408.687 118.334 406.494 108.99 405.302C100.028 404.158 91.5417 402.346 83.0081 399.581C80.1 398.628 76.8105 398.437 73.8071 398.723C72.1862 398.866 70.6606 400.726 68.9443 401.965C71.7571 404.778 73.7117 407.304 76.1908 409.068C82.3883 413.597 83.0081 419.747 80.4814 425.945C78.1454 431.666 74.4745 436.862 71.2804 442.202C70.756 443.06 69.7548 443.87 68.8013 444.109C60.2201 446.206 51.6865 448.399 43.0575 449.973C39.8157 450.592 36.1925 444.347 38.4808 441.773C44.011 435.718 43.9633 428.805 44.011 421.368C44.011 418.079 46.2517 414.36 48.397 411.595C51.2097 407.972 55.0236 405.064 58.8375 401.441C55.7387 390.38 46.8238 394.242 38.9576 393.384L39.1006 393.718Z" fill="#193211"/>
<path fill-rule="evenodd" clip-rule="evenodd" d="M403.518 348.188C402.946 344.708 404.567 340.799 401.135 337.891C397.988 335.269 398.084 331.979 398.274 328.07C398.608 321.729 396.749 320.395 390.122 319.632C388.215 319.393 386.356 319.155 383.495 318.821C385.212 314.721 386.499 311.623 388.215 307.475C382.923 304.376 378.061 301.516 373.198 298.703L373.579 298.989C374.294 298.226 374.866 297.225 375.772 296.796C379.157 295.032 382.399 293.078 381.922 288.644C381.35 283.257 379.729 278.346 374.056 276.058C371.768 275.105 369.527 274.056 367.382 273.15C368.192 268.001 372.054 268.907 374.58 267.763C379.681 265.522 381.731 262.709 379.92 258.133C377.489 251.935 374.104 246.119 370.862 239.635C373.055 237.776 375.725 235.44 378.299 233.199C367.668 216.18 367.477 215.036 372.959 201.02C368.812 199.065 364.664 197.063 360.231 194.965C358.514 188.243 359.706 182.427 364.569 177.516C368.621 173.417 374.437 173.464 378.49 177.898C383.257 183.094 387.262 188.624 383.257 196.824C386.928 198.541 390.074 200.066 393.268 201.544C394.031 200.114 395.032 198.922 394.794 198.493C392.792 194.87 390.17 191.485 388.501 187.719C387.5 185.478 387.5 182.522 391.838 180.901C394.842 183.571 398.179 186.622 401.182 189.292C407.571 189.292 409.192 184.668 411.957 180.806C417.439 173.226 415.055 164.883 416.438 156.159C411.099 158.161 406.808 159.973 402.374 161.403C394.985 163.786 388.883 161.403 384.115 155.587C379.109 149.484 378.061 142.429 380.254 134.944C383.638 123.455 403.423 120.689 410.669 129.08C413.816 132.703 416.486 136.565 416.819 141.571C417.01 144.669 417.201 147.768 417.344 150.628C420.919 151.725 423.97 152.297 426.64 153.68C428.833 154.824 430.549 156.874 433.171 159.162C435.412 156.635 437.367 154.442 440.132 151.344C442.42 151.63 445.853 152.106 450.525 152.726C453.719 149.77 458.486 146.862 461.06 142.619C463.206 139.044 462.825 133.895 463.54 129.461C468.402 129.89 467.306 132.799 467.401 135.23C467.544 142.524 469.213 143.907 475.315 142.619C479.749 141.666 484.278 140.998 490.571 139.95C491.619 137.709 493.479 134.133 494.957 130.367C496.339 126.982 496.816 123.168 498.675 120.117C499.772 118.258 502.537 116.828 504.777 116.351C507.161 115.874 508.067 119.974 506.255 124.074C505.016 126.982 503.49 129.747 502.203 132.656C501.106 135.039 500.201 137.471 499.152 139.902C499.581 144.383 501.345 147.959 505.635 149.866C509.402 151.534 512.93 150.342 516.219 148.722C525.992 144.002 533.954 137.757 535.336 125.743C535.765 122.024 537.052 121.834 543.631 121.309C545.824 126.649 540.199 129.557 539.627 133.99C539.007 138.567 538.387 143.191 537.672 148.054C544.823 151.487 551.45 150.724 558.172 150.056C564.226 149.484 568.994 143.525 576.002 146.29C577.241 146.767 579.959 143.287 582.152 141.904C584.297 140.522 586.585 138.853 588.969 138.472C590.542 138.233 592.878 139.616 594.118 140.951C594.881 141.761 594.928 144.383 594.118 145.289C590.781 149.246 587.062 152.869 583.057 157.017C585.06 170.461 593.355 179.566 603.605 187.147C605.321 188.386 608.801 188.338 610.994 187.576C615.428 186.05 619.385 183.19 623.866 181.807C627.251 180.758 630.111 182.189 629.73 187.909C625.869 191.056 620.291 192.438 615.142 194.631C612.139 195.919 609.564 198.016 610.136 201.782C610.851 206.502 615.905 210.84 620.052 210.221C622.579 209.839 624.867 208.218 627.394 207.646C629.253 207.217 631.303 207.551 633.401 207.551C632.59 213.129 628.777 214.75 624.677 215.894C620.481 217.086 618.288 219.517 619.099 223.903C619.814 227.86 622.007 230.577 626.298 231.102C630.254 231.626 634.211 232.246 639.932 233.056C637.978 236.107 637.31 238.205 635.928 239.111C631.017 242.305 629.635 247.358 628.204 252.412C626.488 258.609 629.444 262.852 635.88 263.281C644.223 263.806 652.661 263.758 661.052 264.426C664.437 264.712 667.726 266.333 673.113 267.953C669.395 270.576 667.583 272.816 665.485 273.15C661.958 273.722 658.191 273.293 654.568 272.864C650.42 272.387 646.321 271.291 642.125 270.766C635.451 269.908 630.302 271.72 625.773 277.536C617.335 288.406 617.144 288.501 627.728 297.034C632.352 300.801 637.12 303.518 642.84 305.044C645.701 305.806 648.275 307.523 650.945 308.81C649.372 312.671 646.416 312.576 643.984 312.242C638.836 311.48 633.735 310.192 628.634 309.048C623.072 307.777 617.001 309.906 610.422 315.437C611.233 320.156 612.091 325.21 613.14 331.407C606.418 332.265 600.458 333.028 593.736 333.934C592.163 345.233 592.02 356.388 592.545 368.593C584.488 369.022 577.098 360.536 568.851 366.209C558.839 363.635 554.072 372.788 545.824 376.554C539.531 373.551 532.428 371.501 525.182 381.083C524.943 382.084 523.99 385.946 522.607 391.81C519.985 388.139 518.841 385.755 517.03 384.277C515.17 382.8 512.262 381.131 510.403 381.655C508.591 382.132 506.923 385.135 506.207 387.328C505.588 389.188 506.827 391.524 506.541 393.526C506.351 394.766 504.873 396.387 503.729 396.673C502.537 396.959 500.391 396.243 499.772 395.242C497.865 392.144 496.72 388.568 494.766 385.517C493.097 382.99 491 380.416 488.473 378.843C483.801 375.934 479.32 377.365 476.459 382.084C475.124 384.325 474.552 387.138 472.884 389.092C469.928 392.525 466.448 395.528 462.3 399.533C462.3 399.533 462.014 401.202 462.634 402.393C464.302 405.921 465.017 409.401 462.634 412.786C461.442 414.455 460.25 416.457 458.582 417.315C451.526 420.891 442.992 418.364 439.321 411.976C434.697 403.919 436.032 398.579 444.041 393.574C445.757 392.477 447.76 391.81 450.191 390.666C448.475 377.174 444.327 366.066 429.787 362.3C426.306 361.394 424.733 359.106 423.017 356.341C420.872 352.86 418.154 349.762 415.77 346.567C411.289 347.521 407.809 348.284 404.329 348.999L403.471 348.236L403.518 348.188Z" fill="#193211"/>
<path fill-rule="evenodd" clip-rule="evenodd" d="M172.683 73.1105C169.632 69.5349 166.962 66.3885 164.387 63.4327C163.1 63.099 162.099 62.5746 161.146 62.6699C153.899 63.3373 146.653 64.5292 139.359 64.6722C133.733 64.7199 129.109 65.578 125.581 70.3454C124.055 72.3953 121.91 74.064 119.813 75.5895C114.998 78.9743 110.087 78.4976 105.034 75.7802C100.695 73.4442 99.7419 69.6303 99.8849 65.1966C99.9326 63.6234 100.028 62.0502 100.171 60.477C100.648 54.7561 101.84 48.9876 101.506 43.3144C101.22 38.261 99.2652 33.3029 97.835 27.439C101.315 25.1984 104.843 23.2437 108.085 20.86C113.138 17.1415 118.573 13.709 122.721 9.0847C132.732 -2.07095 145.318 -0.736121 157.57 1.59989C165.579 3.12545 170.204 10.5149 174.637 16.9985C176.687 20.0019 178.261 23.3391 179.691 26.724C181.216 30.2995 183.171 32.9215 187.223 33.875C191.228 34.8285 192.849 37.8319 193.135 42.0272C193.373 45.555 194.708 48.9876 195.28 52.5155C197.425 65.3874 191.895 72.3 178.642 73.3488C177.116 73.4919 175.543 73.2535 172.587 73.1105H172.683Z" fill="#193211"/>
<path fill-rule="evenodd" clip-rule="evenodd" d="M504.634 434.191C503.299 417.028 512.977 406.254 527.327 398.197C535.67 397.291 543.584 400.2 551.64 402.393C555.979 403.584 559.268 406.016 561.175 409.925C566.515 420.89 569.9 432.284 568.517 444.679C567.897 450.4 565.132 454.262 559.507 456.264C548.542 460.078 537.005 460.602 525.658 461.985C523.608 462.223 520.605 460.268 519.175 458.409C516.648 455.167 515.075 451.21 512.977 447.587C510.641 443.583 508.114 439.721 504.682 434.143L504.634 434.191Z" fill="#193211"/>
<path fill-rule="evenodd" clip-rule="evenodd" d="M347.502 491.446C367.668 505.319 365.761 526.916 356.894 541.265C351.077 550.657 341.114 552.135 333.152 544.364C328.385 539.692 323.999 534.496 319.946 529.156C311.413 517.857 312.938 503.317 323.522 493.687C324.952 492.352 327.098 491.542 329.052 491.017C332.389 490.111 335.869 489.635 339.588 488.92C332.914 478.336 331.15 474.093 330.482 468.468C329.72 462.032 332.008 457.264 337.681 453.975C343.879 450.352 349.838 451.543 355.559 454.833C357.18 455.786 358.61 458.027 358.991 459.886C360.517 467.657 361.613 475.476 354.796 481.864C352.174 484.343 350.362 487.632 347.597 491.399L347.502 491.446Z" fill="#193211"/>
<path fill-rule="evenodd" clip-rule="evenodd" d="M511.452 562.338C518.842 568.87 524.753 573.78 527.804 581.36C531.046 589.465 529.091 601.574 522.608 606.961C517.173 611.442 510.546 610.584 504.778 608.439C490.571 603.242 484.612 582.838 493.241 570.204C494.337 568.583 496.149 566.963 497.961 566.295C502.251 564.722 506.78 563.625 511.5 562.291L511.452 562.338Z" fill="#193211"/>
<path fill-rule="evenodd" clip-rule="evenodd" d="M445.71 615.447C445.281 628.176 436.985 634.088 429.215 640.142C426.688 642.097 423.16 641.477 420.347 639.523C411.671 633.611 406.379 625.506 405.235 615.018C404.424 607.724 410.86 597.713 417.773 594.948C429.787 590.133 441.753 596.998 444.995 610.585C445.471 612.587 445.662 614.732 445.757 615.447H445.71Z" fill="#193211"/>
<path fill-rule="evenodd" clip-rule="evenodd" d="M223.55 143.524C220.117 148.387 216.542 152.248 214.301 156.825C212.347 160.829 211.87 165.549 210.583 170.603C203.336 171.508 197.52 167.408 191.227 166.264C190.798 166.169 190.369 165.692 189.988 165.358C186.793 162.26 183.456 143.953 185.411 140.187C185.649 139.71 185.792 139.138 186.126 138.804C191.751 133.417 199.713 134.227 206.387 131.51C210.63 129.746 214.873 132.178 217.924 134.752C220.451 136.897 221.691 140.568 223.55 143.572V143.524Z" fill="#193211"/>
<path fill-rule="evenodd" clip-rule="evenodd" d="M109.705 478.339C102.745 475.192 99.2648 470.568 97.6915 463.989C96.2136 457.982 97.8346 452.643 100.075 447.351C102.888 440.724 111.278 438.674 116.999 443.155C119.431 445.015 121.481 447.446 123.388 449.877C127.249 454.931 127.583 460.223 124.198 465.8C120.861 471.331 116.618 475.526 109.753 478.339H109.705Z" fill="#193211"/>
<path fill-rule="evenodd" clip-rule="evenodd" d="M239.855 81.6429C240.617 88.937 235.373 91.7974 230.081 94.2765C223.932 97.1846 216.971 95.802 212.824 91.0823C208.962 86.6964 208.819 81.5953 210.917 76.3988C213.92 68.8664 221.167 63.7176 227.745 64.6711C234.467 65.6245 239.283 69.3908 239.14 75.4454C239.14 77.4953 239.616 79.5929 239.855 81.6429Z" fill="#193211"/>
<path fill-rule="evenodd" clip-rule="evenodd" d="M504.443 678.805C496.625 682.524 492 677.756 488.234 672.751C484.563 667.936 484.086 662.119 486.947 656.494C488.663 653.109 491.238 650.535 495.195 649.963C499.58 649.391 504.872 652.299 506.97 656.065C511.69 664.455 510.212 671.988 504.443 678.805Z" fill="#193211"/>
<path fill-rule="evenodd" clip-rule="evenodd" d="M398.799 386.901C398.799 393.003 396.368 395.863 390.885 396.149C384.592 396.483 379.205 391.43 378.824 384.755C378.538 380.083 385.307 373.981 390.313 374.315C395.891 374.744 398.751 378.987 398.751 386.901H398.799Z" fill="#193211"/>
<path fill-rule="evenodd" clip-rule="evenodd" d="M499.056 644.003C492.191 643.479 487.472 638.044 488.187 631.608C488.711 626.793 491.81 623.551 495.958 623.456C502.012 623.36 506.446 629.367 505.683 636.614C505.254 640.571 501.965 644.242 499.104 644.003H499.056Z" fill="#193211"/>
<path fill-rule="evenodd" clip-rule="evenodd" d="M33.3324 280.918C36.5265 282.682 38.5288 283.397 40.0543 284.684C43.9636 288.022 44.4881 292.932 41.6753 297.032C39.1486 300.751 34.1905 301.99 30.758 299.797C26.4197 296.984 25.1801 292.551 27.7545 287.736C28.9464 285.543 30.9487 283.826 33.3324 280.966V280.918Z" fill="#193211"/>
<path fill-rule="evenodd" clip-rule="evenodd" d="M64.9878 40.1206C69.3261 40.1682 73.14 45.0309 72.8063 49.989C72.4726 54.804 69.1831 57.9982 64.7971 57.6645C60.5541 57.3307 56.6449 53.6123 56.5019 49.7507C56.3112 45.174 60.8402 40.0729 64.9878 40.1206Z" fill="#193211"/>
<path fill-rule="evenodd" clip-rule="evenodd" d="M244.622 506.941C244.527 508.037 244.622 509.61 244.289 511.041C243.526 514.235 241.905 516.762 238.377 517.286C236.041 517.667 233.371 513.996 233.943 510.469C234.563 506.512 235.707 502.555 237.09 498.741C237.471 497.597 239.903 496.023 240.379 496.31C241.857 497.215 243.287 498.741 243.907 500.362C244.622 502.221 244.384 504.414 244.622 506.893V506.941Z" fill="#193211"/>
<path fill-rule="evenodd" clip-rule="evenodd" d="M382.16 19.3351C378.346 19.7642 373.627 16.3794 373.102 12.8039C372.625 9.133 375.295 5.31908 378.68 4.89002C382.494 4.36561 386.832 7.51207 387.833 11.5167C388.596 14.5201 385.354 19.0014 382.16 19.3828V19.3351Z" fill="#193211"/>
<path fill-rule="evenodd" clip-rule="evenodd" d="M731.99 52.7534C735.47 53.0395 738.665 57.0918 737.95 60.3336C737.187 63.7661 733.468 66.9602 730.322 66.8172C727.318 66.7219 724.553 62.9556 724.553 58.8556C724.553 55.2801 728.033 52.372 731.99 52.7534Z" fill="#193211"/>
<path fill-rule="evenodd" clip-rule="evenodd" d="M276.659 147.386C280.902 147.625 283.619 150.151 283.762 153.822C283.858 157.875 281.188 161.355 277.899 161.498C273.036 161.688 268.459 158.113 268.078 153.775C267.744 150.008 271.653 147.1 276.707 147.386H276.659Z" fill="#193211"/>
<path fill-rule="evenodd" clip-rule="evenodd" d="M220.642 238.396C216.161 238.539 211.918 235.011 212.204 231.484C212.585 227.67 216.828 223.999 220.69 224.189C224.075 224.333 227.03 227.67 227.126 231.436C227.221 235.297 224.456 238.253 220.594 238.396H220.642Z" fill="#193211"/>
<path fill-rule="evenodd" clip-rule="evenodd" d="M243.669 176.469C247.769 169.223 251.487 167.888 256.064 172.178C257.065 173.084 258.019 175.134 257.685 176.183C257.065 177.852 255.635 179.711 254.062 180.474C250.724 182.047 250.581 181.809 243.716 176.469H243.669Z" fill="#193211"/>
<path fill-rule="evenodd" clip-rule="evenodd" d="M286.241 172.748C289.197 172.7 292.915 176.275 293.44 179.66C293.869 182.473 290.961 185.524 287.814 185.667C283.667 185.858 280.091 183.331 279.805 180.089C279.519 176.895 283.142 172.843 286.289 172.748H286.241Z" fill="#193211"/>
<path fill-rule="evenodd" clip-rule="evenodd" d="M423.35 404.823C423.589 408.208 421.3 410.735 417.868 410.782C414.197 410.878 410.955 408.78 410.812 406.301C410.622 402.868 413.816 399.388 417.439 399.102C420.633 398.864 423.064 401.247 423.35 404.823Z" fill="#193211"/>
<path fill-rule="evenodd" clip-rule="evenodd" d="M29.3278 240.494C27.8976 238.968 25.3709 237.156 24.179 234.725C23.0825 232.484 26.4198 229.338 30.043 228.718C32.9987 228.194 35.2394 229.386 36.2406 232.198C37.337 235.249 34.1429 239.731 29.3755 240.541L29.3278 240.494Z" fill="#193211"/>
<path fill-rule="evenodd" clip-rule="evenodd" d="M258.543 110.011C255.587 109.248 254.92 106.912 255.015 104.242C255.158 100.619 257.447 98.4736 260.784 98.6643C263.74 98.855 265.456 100.667 265.647 103.479C265.837 107.007 262.214 110.201 258.496 110.011H258.543Z" fill="#193211"/>
<path fill-rule="evenodd" clip-rule="evenodd" d="M330.673 693.727C329.434 696.588 328.909 699.305 327.336 700.878C326.24 701.927 323.331 701.975 321.711 701.355C319.088 700.354 317.801 697.541 319.041 694.967C319.708 693.584 322.187 692.535 323.951 692.345C325.858 692.154 327.86 693.107 330.721 693.775L330.673 693.727Z" fill="#193211"/>
<path fill-rule="evenodd" clip-rule="evenodd" d="M238.472 162.164C238.472 166.407 235.849 168.696 232.179 168.743C229.366 168.743 226.839 166.503 227.125 164.167C227.507 161.068 230.462 158.017 233.323 158.732C235.42 159.256 237.184 161.259 238.472 162.164Z" fill="#193211"/>
<path fill-rule="evenodd" clip-rule="evenodd" d="M318.039 213.796C316.132 210.792 314.225 208.981 313.844 206.931C313.367 204.07 317.753 201.019 320.185 202.497C321.996 203.641 323.998 206.454 323.808 208.313C323.617 210.029 320.661 211.46 318.039 213.796Z" fill="#193211"/>
<path fill-rule="evenodd" clip-rule="evenodd" d="M329.862 416.266C332.008 419.365 334.153 421.081 334.487 423.131C335.011 426.611 331.34 430.282 329.195 428.899C327.336 427.708 325.429 425.086 325.333 423.036C325.286 421.224 327.717 419.317 329.862 416.266Z" fill="#193211"/>
<path fill-rule="evenodd" clip-rule="evenodd" d="M380.158 71.1082C380.873 73.3965 381.588 74.7313 381.636 76.1616C381.731 78.7359 381.112 81.2149 378.204 82.0254C377.489 82.2161 375.868 81.5964 375.772 81.0719C375.343 78.8313 374.676 76.3046 375.296 74.2546C375.677 72.9674 378.204 72.3 380.158 71.1082Z" fill="#193211"/>
<path fill-rule="evenodd" clip-rule="evenodd" d="M298.159 233.389C293.964 232.674 292.2 229.671 293.44 226.048C293.916 224.57 296.014 222.758 297.444 222.663C300.352 222.52 303.356 226.429 302.307 229.051C301.544 230.958 299.256 232.293 298.159 233.389Z" fill="#193211"/>
<path fill-rule="evenodd" clip-rule="evenodd" d="M514.169 39.6443C516.076 34.9246 517.935 30.3479 519.938 25.4852C524.514 26.7247 524.038 30.0619 523.418 32.6363C522.226 37.4513 520.319 38.5955 514.169 39.6443Z" fill="#193211"/>
<path fill-rule="evenodd" clip-rule="evenodd" d="M348.217 565.198C350.172 567.344 351.888 568.535 352.603 570.204C353.462 572.159 350.601 575.114 348.17 575.257C345.738 575.448 343.355 572.683 344.26 570.061C344.785 568.44 346.501 567.248 348.217 565.198Z" fill="#193211"/>
<path fill-rule="evenodd" clip-rule="evenodd" d="M205.291 108.438C202.479 110.107 201.001 111.537 199.332 111.823C196.901 112.252 194.517 109.344 195.375 106.769C195.852 105.292 198.331 103.051 199.094 103.337C201.048 104.1 202.526 106.054 205.291 108.438Z" fill="#193211"/>
<path fill-rule="evenodd" clip-rule="evenodd" d="M476.125 394.575C479.176 392.573 480.893 391.095 482.895 390.38C483.562 390.141 485.422 391.905 485.898 393.097C486.757 395.386 484.325 398.818 482.037 398.389C480.368 398.103 478.938 396.482 476.125 394.575Z" fill="#193211"/>
<path fill-rule="evenodd" clip-rule="evenodd" d="M61.8891 81.5502C59.3624 82.1699 57.8845 82.9804 56.645 82.742C54.2136 82.2176 53.3555 80.2153 54.4996 78.1177C55.024 77.1642 57.4554 76.163 58.0752 76.5921C59.4577 77.5456 60.3159 79.3572 61.8414 81.5502H61.8891Z" fill="#193211"/>
<path fill-rule="evenodd" clip-rule="evenodd" d="M389.455 163.691C391.409 166.027 393.412 167.457 393.602 169.03C393.745 170.031 391.076 172.367 389.741 172.272C388.263 172.177 385.975 170.222 385.784 168.792C385.593 167.505 387.738 165.931 389.455 163.691Z" fill="#193211"/>
<path fill-rule="evenodd" clip-rule="evenodd" d="M196.138 536.452C194.279 538.406 193.135 540.075 191.514 541.076C189.702 542.173 186.508 540.218 187.223 538.549C187.938 536.881 189.607 535.355 191.228 534.593C192.134 534.163 193.85 535.498 196.138 536.404V536.452Z" fill="#193211"/>
<path fill-rule="evenodd" clip-rule="evenodd" d="M247.768 208.886C246.577 210.363 245.909 211.984 244.86 212.318C243.716 212.652 242.191 211.746 240.856 211.412C241.762 209.934 242.381 208.17 243.621 207.122C244.05 206.74 245.957 208.075 247.768 208.933V208.886Z" fill="#193211"/>
<path fill-rule="evenodd" clip-rule="evenodd" d="M30.4241 267.618C27.7544 268.381 26.0381 269.287 24.5602 269.096C23.6544 268.953 22.3672 266.903 22.4625 265.854C22.7009 263.423 24.7509 262.803 26.8009 263.709C27.8973 264.185 28.6125 265.568 30.4241 267.618Z" fill="#193211"/>
<path fill-rule="evenodd" clip-rule="evenodd" d="M243.144 106.814C240.951 107.672 239.426 108.768 237.9 108.768C236.947 108.768 235.278 107.386 235.087 106.385C234.611 104.192 238.043 101.713 240.093 102.762C241.142 103.286 241.666 104.812 243.144 106.862V106.814Z" fill="#193211"/>
<path fill-rule="evenodd" clip-rule="evenodd" d="M266.695 85.6974C267.41 85.1253 268.078 84.5532 268.793 83.9335C269.413 84.9346 270.032 85.9834 270.652 86.9846C269.842 87.366 268.841 88.2241 268.269 87.9857C267.553 87.6997 267.22 86.5078 266.743 85.6974H266.695Z" fill="#193211"/>
<path fill-rule="evenodd" clip-rule="evenodd" d="M607.753 378.317C606.561 377.363 605.464 376.505 604.416 375.695C604.988 375.17 605.56 374.312 606.179 374.312C607.038 374.312 608.325 374.741 608.611 375.361C608.897 375.981 608.182 377.077 607.8 378.317H607.753Z" fill="#193211"/>
<path fill-rule="evenodd" clip-rule="evenodd" d="M412.1 63.3364C411.671 62.526 410.765 61.1911 410.908 61.0958C411.814 60.2853 412.958 59.8086 414.006 59.1888C414.197 60.047 414.865 61.1435 414.531 61.7155C414.102 62.4783 412.958 62.812 412.1 63.3364Z" fill="#193211"/>
<path fill-rule="evenodd" clip-rule="evenodd" d="M239.236 181.137C238.997 181.995 238.759 182.853 238.52 183.664C237.424 183.235 236.327 182.758 235.231 182.329C235.803 181.566 236.232 180.517 236.947 180.231C237.472 179.993 238.425 180.803 239.236 181.137Z" fill="#193211"/>
<path fill-rule="evenodd" clip-rule="evenodd" d="M404.377 348.952C404.377 349.953 404.758 351.335 404.234 351.86C403.423 352.67 402.041 352.909 400.896 353.433C400.658 352.527 399.943 351.288 400.277 350.811C401.087 349.715 402.374 349.047 403.471 348.189L404.329 348.952H404.377Z" fill="#193211"/>
<path fill-rule="evenodd" clip-rule="evenodd" d="M373.198 298.704C371.673 299.228 370.147 299.705 368.622 300.229C368.526 299.657 368.431 299.085 368.336 298.561C370.052 298.704 371.768 298.799 373.484 298.942C373.532 298.942 373.151 298.656 373.151 298.656L373.198 298.704Z" fill="#193211"/>
<path fill-rule="evenodd" clip-rule="evenodd" d="M437.415 145.098C437.129 144.955 436.843 144.812 436.557 144.669C436.986 144.478 437.415 144.287 437.796 144.097C437.653 144.43 437.558 144.764 437.415 145.098Z" fill="#193211"/>
<path fill-rule="evenodd" clip-rule="evenodd" d="M403.614 632.132C403.233 631.846 402.852 631.56 402.47 631.274C403.281 631.369 404.091 631.465 404.901 631.56C404.472 631.751 404.043 631.941 403.614 632.132Z" fill="#193211"/>
<path fill-rule="evenodd" clip-rule="evenodd" d="M729.273 176.658C728.844 176.848 728.415 177.039 727.986 177.23C727.843 176.61 727.652 176.038 727.509 175.418C727.986 175.466 728.51 175.418 728.892 175.657C729.13 175.8 729.13 176.324 729.225 176.658H729.273Z" fill="#193211"/>
</svg>
