<svg width="525" height="437" viewBox="0 0 525 437" fill="none" xmlns="http://www.w3.org/2000/svg">
<path fill-rule="evenodd" clip-rule="evenodd" d="M-174.899 393.717C-177.14 399.915 -178.856 404.682 -180.763 409.974C-187.056 410.642 -192.682 411.261 -198.498 411.833C-199.976 409.593 -201.025 407.829 -202.264 406.256C-207.175 400.01 -204.791 394.29 -200.882 388.902C-197.068 383.658 -191.585 382.323 -185.435 384.087C-183.957 384.516 -182.48 385.851 -181.097 385.756C-179.238 385.613 -176.33 384.898 -175.901 383.658C-175.09 381.561 -174.995 378.319 -176.044 376.507C-177.236 374.505 -179.953 372.646 -182.289 372.264C-187.962 371.406 -193.731 371.263 -199.451 371.216C-202.55 371.216 -205.792 372.598 -208.748 371.978C-210.798 371.549 -212.991 369.118 -213.897 367.068C-214.421 365.828 -212.848 362.348 -211.561 361.967C-200.691 358.868 -196.639 349.762 -192.062 340.943C-190.87 338.607 -188.82 336.747 -187.676 334.411C-182.909 324.591 -175.186 319.203 -164.411 317.916C-161.837 317.63 -159.358 316.772 -156.688 316.152C-157.117 313.197 -157.451 310.718 -157.832 307.857C-149.06 299.228 -137.38 293.698 -129.8 283.543C-129.323 282.924 -129.8 281.541 -129.896 280.683C-132.708 276.011 -139.383 280.683 -142.529 275.058C-140.098 273.246 -137.809 271.482 -135.616 269.813C-135.473 268.669 -134.901 267.287 -135.33 266.667C-140.002 260.088 -139.669 252.317 -138.763 245.262C-136.427 226.955 -146.867 215.704 -159.024 205.263C-163.792 201.163 -169.512 198.208 -174.375 194.251C-181.335 188.577 -182.813 182.857 -179.285 174.657C-176.568 168.412 -173.04 162.5 -169.751 156.493C-165.985 149.628 -162.075 142.811 -158.118 135.993C-156.783 133.753 -155.21 131.607 -153.494 129.653C-150.109 125.887 -146.105 123.694 -140.86 125.6C-133.28 128.413 -126.463 127.412 -120.408 121.834C-119.264 120.785 -117.691 120.213 -116.261 119.594C-108.585 116.399 -103.341 111.203 -100.433 103.194C-96.81 93.3254 -89.3729 86.9371 -80.0765 82.2651C-75.2138 79.8337 -71.0185 79.8337 -66.8709 83.0755C-63.1523 85.9836 -59.5768 89.0824 -56.0966 92.2289C-50.2804 97.473 -45.3224 103.48 -37.933 107.151C-31.0203 110.583 -29.1133 117.782 -31.9737 124.647C-33.3563 128.032 -35.2632 131.274 -37.2655 134.325C-41.0317 140.093 -44.941 140.284 -49.3746 134.563C-51.0909 132.322 -52.4257 130.368 -55.4768 130.892C-59.2431 131.512 -61.007 134.325 -60.7686 137.614C-59.8628 151.011 -57.6698 163.692 -43.177 169.889C-37.8852 172.178 -34.6911 176.087 -37.4085 182.475C-37.9806 183.858 -38.7434 186.194 -38.076 186.957C-33.0702 192.82 -37.3608 199.018 -37.5038 204.691C-33.7853 208.6 -30.4958 211.795 -25.0133 210.364C-23.5355 209.983 -21.8669 210.174 -20.3413 210.317C-17.4332 210.603 -15.0973 212.176 -15.1449 215.132C-15.1449 216.896 -16.6228 218.898 -18.0053 220.185C-19.0065 221.139 -21.0564 220.853 -22.3913 221.615C-24.1552 222.569 -26.6342 223.618 -27.1587 225.239C-30.0191 233.629 -36.7888 238.873 -42.0805 245.309C-43.3677 246.835 -44.2735 248.789 -45.7991 251.268C-40.1259 257.561 -35.1678 264.426 -28.8749 269.67C-22.9634 274.628 -18.9111 280.349 -15.9077 287.167C-13.1426 293.46 -9.5671 299.085 -4.56136 303.996C-0.604443 307.905 2.06531 313.101 5.59316 318.202C11.3617 319.966 18.1314 322.064 25.8068 324.447C26.4743 319.251 26.951 315.151 27.5707 311.099C28.5242 304.806 30.8126 299.037 34.6742 293.841C42.9217 282.685 55.9366 279.539 67.9504 286.118C70.2387 287.405 72.6701 288.549 74.6724 290.218C81.3944 295.891 85.9233 302.565 84.5408 312.052C83.778 317.201 83.3966 322.445 82.8246 328.118C84.7315 330.979 87.6873 334.078 88.9745 337.796C90.6431 342.754 84.3024 344.089 82.8246 347.951C84.5408 358.01 89.1651 366.496 96.9836 374.267C98.8906 372.693 101.036 371.788 101.751 370.167C107.424 357.915 120.01 359.488 129.974 355.912C135.933 358.82 143.466 358.439 147.804 364.78C149.568 367.402 151.665 369.738 153.715 372.312C156.242 395.672 156.099 396.769 149.758 409.021C153.191 412.549 157.768 415.647 159.913 419.938C161.868 423.847 161.295 429.044 161.82 433.954C156.337 438.006 151.427 441.677 146.421 445.396C138.221 442.44 134.741 435.909 131.833 429.234C130.927 427.137 131.499 423.943 132.358 421.654C133.597 418.365 135.79 415.457 137.888 411.786C127.256 409.307 115.529 414.408 105.279 406.208C103.896 408.878 101.513 411.452 101.417 414.122C101.036 426.04 93.2651 434.478 87.7349 443.727C82.1094 453.071 74.5293 461.605 64.9469 467.421C54.8401 473.523 44.2089 477.337 32.5765 470.091C26.0929 466.086 18.8941 465.419 11.457 468.327C5.16408 470.806 -2.12994 468.994 -8.3752 472.951C-10.1391 474.048 -13.8577 473.619 -15.86 472.474C-22.868 468.565 -30.1144 466.038 -38.1713 465.419C-42.7003 465.037 -45.227 462.463 -44.8456 458.172C-43.7491 446.063 -48.9932 435.575 -52.4257 424.61C-54.571 417.745 -59.0524 412.501 -65.2976 409.307C-68.8731 407.495 -73.6405 405.54 -77.216 406.399C-86.7985 408.687 -95.6658 406.494 -105.01 405.302C-113.972 404.158 -122.458 402.346 -130.992 399.581C-133.9 398.628 -137.19 398.437 -140.193 398.723C-141.814 398.866 -143.34 400.725 -145.056 401.965C-142.243 404.778 -140.288 407.304 -137.809 409.068C-131.612 413.597 -130.992 419.747 -133.519 425.945C-135.855 431.666 -139.526 436.862 -142.72 442.202C-143.244 443.06 -144.245 443.87 -145.199 444.108C-153.78 446.206 -162.314 448.399 -170.943 449.972C-174.184 450.592 -177.808 444.347 -175.519 441.773C-169.989 435.718 -170.037 428.805 -169.989 421.368C-169.989 418.079 -167.748 414.36 -165.603 411.595C-162.79 407.972 -158.976 405.064 -155.163 401.441C-158.261 390.38 -167.176 394.242 -175.043 393.384L-174.899 393.717Z" fill="#193211"/>
<path fill-rule="evenodd" clip-rule="evenodd" d="M189.518 348.188C188.946 344.708 190.567 340.799 187.134 337.891C183.988 335.269 184.083 331.979 184.274 328.07C184.608 321.729 182.748 320.395 176.122 319.632C174.215 319.393 172.356 319.155 169.495 318.821C171.212 314.721 172.499 311.623 174.215 307.475C168.923 304.376 164.06 301.516 159.198 298.703L159.579 298.989C160.294 298.226 160.866 297.225 161.772 296.796C165.157 295.032 168.399 293.078 167.922 288.644C167.35 283.257 165.729 278.346 160.056 276.058C157.767 275.105 155.527 274.056 153.382 273.15C154.192 268.001 158.054 268.907 160.58 267.763C165.681 265.522 167.731 262.709 165.92 258.133C163.488 251.935 160.104 246.119 156.862 239.635C159.055 237.776 161.724 235.44 164.299 233.199C153.668 216.18 153.477 215.036 158.959 201.02C154.812 199.065 150.664 197.063 146.23 194.965C144.514 188.243 145.706 182.427 150.569 177.516C154.621 173.417 160.437 173.464 164.49 177.898C169.257 183.094 173.261 188.624 169.257 196.824C172.928 198.541 176.074 200.066 179.268 201.544C180.031 200.114 181.032 198.922 180.794 198.493C178.792 194.87 176.17 191.485 174.501 187.719C173.5 185.478 173.5 182.522 177.838 180.901C180.842 183.571 184.179 186.622 187.182 189.292C193.57 189.292 195.191 184.668 197.956 180.806C203.439 173.226 201.055 164.883 202.438 156.159C197.098 158.161 192.808 159.973 188.374 161.403C180.985 163.786 174.882 161.403 170.115 155.587C165.109 149.484 164.06 142.429 166.253 134.944C169.638 123.455 189.423 120.689 196.669 129.08C199.816 132.703 202.485 136.565 202.819 141.571C203.01 144.669 203.201 147.768 203.344 150.628C206.919 151.725 209.97 152.297 212.64 153.68C214.833 154.824 216.549 156.874 219.171 159.162C221.412 156.635 223.367 154.442 226.132 151.344C228.42 151.63 231.852 152.106 236.525 152.726C239.719 149.77 244.486 146.862 247.06 142.619C249.206 139.044 248.824 133.895 249.539 129.461C254.402 129.89 253.306 132.799 253.401 135.23C253.544 142.524 255.213 143.907 261.315 142.619C265.749 141.666 270.277 140.998 276.57 139.95C277.619 137.709 279.479 134.133 280.956 130.367C282.339 126.982 282.816 123.168 284.675 120.117C285.771 118.258 288.537 116.828 290.777 116.351C293.161 115.874 294.067 119.974 292.255 124.074C291.016 126.982 289.49 129.747 288.203 132.656C287.106 135.039 286.201 137.471 285.152 139.902C285.581 144.383 287.345 147.959 291.635 149.866C295.402 151.534 298.929 150.342 302.219 148.722C311.992 144.002 319.954 137.757 321.336 125.743C321.765 122.024 323.052 121.834 329.631 121.309C331.824 126.649 326.199 129.557 325.627 133.99C325.007 138.567 324.387 143.191 323.672 148.054C330.823 151.487 337.45 150.724 344.172 150.056C350.226 149.484 354.994 143.525 362.002 146.29C363.241 146.767 365.959 143.287 368.152 141.904C370.297 140.522 372.585 138.853 374.969 138.472C376.542 138.233 378.878 139.616 380.118 140.951C380.88 141.761 380.928 144.383 380.118 145.289C376.781 149.246 373.062 152.869 369.057 157.017C371.06 170.461 379.355 179.566 389.605 187.147C391.321 188.386 394.801 188.338 396.994 187.576C401.428 186.05 405.385 183.19 409.866 181.807C413.251 180.758 416.111 182.189 415.73 187.909C411.868 191.056 406.291 192.438 401.142 194.631C398.138 195.919 395.564 198.016 396.136 201.782C396.851 206.502 401.905 210.84 406.052 210.221C408.579 209.839 410.867 208.218 413.394 207.646C415.253 207.217 417.303 207.551 419.401 207.551C418.59 213.129 414.777 214.75 410.677 215.894C406.481 217.086 404.288 219.517 405.099 223.903C405.814 227.86 408.007 230.577 412.297 231.102C416.254 231.626 420.211 232.246 425.932 233.056C423.978 236.107 423.31 238.205 421.927 239.111C417.017 242.305 415.635 247.358 414.204 252.412C412.488 258.609 415.444 262.852 421.88 263.281C430.223 263.806 438.661 263.758 447.052 264.426C450.436 264.712 453.726 266.333 459.113 267.953C455.395 270.576 453.583 272.816 451.485 273.15C447.957 273.722 444.191 273.293 440.568 272.864C436.42 272.387 432.32 271.291 428.125 270.766C421.451 269.908 416.302 271.72 411.773 277.536C403.335 288.406 403.144 288.501 413.728 297.034C418.352 300.801 423.119 303.518 428.84 305.044C431.701 305.806 434.275 307.523 436.945 308.81C435.372 312.671 432.416 312.576 429.984 312.242C424.836 311.48 419.735 310.192 414.633 309.048C409.071 307.777 403.001 309.906 396.422 315.437C397.233 320.156 398.091 325.21 399.139 331.407C392.417 332.265 386.458 333.028 379.736 333.934C378.163 345.233 378.02 356.388 378.545 368.593C370.488 369.022 363.098 360.536 354.851 366.209C344.839 363.635 340.072 372.788 331.824 376.554C325.531 373.551 318.428 371.501 311.182 381.083C310.943 382.084 309.99 385.946 308.607 391.81C305.985 388.139 304.841 385.755 303.029 384.277C301.17 382.8 298.262 381.131 296.403 381.655C294.591 382.132 292.922 385.135 292.207 387.328C291.588 389.188 292.827 391.524 292.541 393.526C292.35 394.766 290.873 396.387 289.728 396.673C288.537 396.959 286.391 396.243 285.771 395.242C283.864 392.144 282.72 388.568 280.766 385.517C279.097 382.99 276.999 380.416 274.473 378.843C269.801 375.934 265.319 377.365 262.459 382.084C261.124 384.325 260.552 387.138 258.883 389.092C255.928 392.525 252.448 395.528 248.3 399.533C248.3 399.533 248.014 401.202 248.634 402.393C250.302 405.921 251.017 409.401 248.634 412.786C247.442 414.455 246.25 416.457 244.581 417.315C237.526 420.891 228.992 418.364 225.321 411.976C220.697 403.919 222.032 398.579 230.041 393.574C231.757 392.477 233.759 391.81 236.191 390.666C234.475 377.174 230.327 366.066 215.786 362.3C212.306 361.394 210.733 359.106 209.017 356.341C206.872 352.86 204.154 349.762 201.77 346.567C197.289 347.521 193.809 348.284 190.329 348.999L189.471 348.236L189.518 348.188Z" fill="#193211"/>
<path fill-rule="evenodd" clip-rule="evenodd" d="M290.634 434.191C289.299 417.028 298.977 406.254 313.327 398.197C321.67 397.291 329.583 400.2 337.64 402.393C341.979 403.584 345.268 406.016 347.175 409.925C352.514 420.89 355.899 432.284 354.517 444.679C353.897 450.4 351.132 454.262 345.506 456.264C334.541 460.078 323.004 460.602 311.658 461.985C309.608 462.223 306.605 460.268 305.174 458.409C302.648 455.167 301.075 451.21 298.977 447.587C296.641 443.583 294.114 439.721 290.682 434.143L290.634 434.191Z" fill="#193211"/>
<path fill-rule="evenodd" clip-rule="evenodd" d="M9.54973 143.524C6.11722 148.387 2.54168 152.248 0.301016 156.825C-1.65361 160.829 -2.13034 165.549 -3.41753 170.603C-10.6639 171.508 -16.4801 167.408 -22.773 166.264C-23.2021 166.169 -23.6311 165.692 -24.0125 165.358C-27.2067 162.26 -30.5439 143.953 -28.5892 140.187C-28.3509 139.71 -28.2079 139.138 -27.8742 138.804C-22.2487 133.417 -14.2872 134.227 -7.61284 131.51C-3.36988 129.746 0.873074 132.178 3.92419 134.752C6.4509 136.897 7.69045 140.568 9.54973 143.572V143.524Z" fill="#193211"/>
<path fill-rule="evenodd" clip-rule="evenodd" d="M25.8545 81.643C26.6172 88.9371 21.3731 91.7976 16.0813 94.2766C9.93143 97.1847 2.97109 95.8022 -1.17652 91.0825C-5.03809 86.6965 -5.18108 81.5954 -3.08344 76.399C-0.0799941 68.8665 7.1664 63.7177 13.7454 64.6712C20.4674 65.6247 25.2824 69.3909 25.1394 75.4455C25.1394 77.4955 25.6161 79.5931 25.8545 81.643Z" fill="#193211"/>
<path fill-rule="evenodd" clip-rule="evenodd" d="M184.799 386.901C184.799 393.003 182.367 395.863 176.885 396.149C170.592 396.483 165.205 391.43 164.823 384.755C164.537 380.083 171.307 373.981 176.313 374.315C181.891 374.744 184.751 378.987 184.751 386.901H184.799Z" fill="#193211"/>
<path fill-rule="evenodd" clip-rule="evenodd" d="M168.16 19.3351C164.346 19.7642 159.627 16.3794 159.102 12.8039C158.625 9.133 161.295 5.31908 164.68 4.89002C168.494 4.36561 172.832 7.51207 173.833 11.5167C174.596 14.5201 171.354 19.0014 168.16 19.3828V19.3351Z" fill="#193211"/>
<path fill-rule="evenodd" clip-rule="evenodd" d="M517.99 52.7534C521.47 53.0395 524.664 57.0918 523.949 60.3336C523.187 63.7661 519.468 66.9602 516.321 66.8172C513.318 66.7219 510.553 62.9556 510.553 58.8556C510.553 55.2801 514.033 52.372 517.99 52.7534Z" fill="#193211"/>
<path fill-rule="evenodd" clip-rule="evenodd" d="M62.659 147.386C66.902 147.625 69.6194 150.151 69.7624 153.822C69.8578 157.875 67.188 161.355 63.8985 161.498C59.0358 161.688 54.4591 158.113 54.0777 153.775C53.744 150.008 57.6533 147.1 62.7067 147.386H62.659Z" fill="#193211"/>
<path fill-rule="evenodd" clip-rule="evenodd" d="M6.64214 238.396C2.16081 238.539 -2.08217 235.011 -1.79613 231.484C-1.41474 227.67 2.82822 223.999 6.68979 224.189C10.0746 224.333 13.0304 227.67 13.1258 231.436C13.2211 235.297 10.4561 238.253 6.59449 238.396H6.64214Z" fill="#193211"/>
<path fill-rule="evenodd" clip-rule="evenodd" d="M29.6685 176.469C33.7684 169.223 37.4869 167.888 42.0636 172.178C43.0647 173.084 44.0183 175.134 43.6845 176.183C43.0648 177.852 41.6345 179.711 40.0613 180.474C36.7241 182.047 36.5811 181.809 29.7161 176.469H29.6685Z" fill="#193211"/>
<path fill-rule="evenodd" clip-rule="evenodd" d="M72.2411 172.748C75.1969 172.7 78.9155 176.275 79.4399 179.66C79.869 182.473 76.9608 185.524 73.8144 185.667C69.6668 185.858 66.0913 183.331 65.8052 180.089C65.5192 176.895 69.1424 172.843 72.2889 172.748H72.2411Z" fill="#193211"/>
<path fill-rule="evenodd" clip-rule="evenodd" d="M209.35 404.823C209.589 408.208 207.3 410.735 203.868 410.782C200.197 410.878 196.955 408.78 196.812 406.301C196.621 402.868 199.815 399.388 203.439 399.102C206.633 398.864 209.064 401.247 209.35 404.823Z" fill="#193211"/>
<path fill-rule="evenodd" clip-rule="evenodd" d="M44.543 110.011C41.5872 109.248 40.9198 106.912 41.0152 104.242C41.1582 100.619 43.4465 98.4736 46.7837 98.6643C49.7394 98.855 51.4557 100.667 51.6464 103.479C51.8371 107.007 48.2139 110.201 44.4954 110.011H44.543Z" fill="#193211"/>
<path fill-rule="evenodd" clip-rule="evenodd" d="M24.4716 162.164C24.4716 166.407 21.8495 168.696 18.1786 168.743C15.3658 168.743 12.8391 166.503 13.1252 164.167C13.5066 161.068 16.4624 158.017 19.3228 158.732C21.4204 159.256 23.1844 161.259 24.4716 162.164Z" fill="#193211"/>
<path fill-rule="evenodd" clip-rule="evenodd" d="M104.039 213.796C102.132 210.792 100.225 208.981 99.844 206.931C99.3673 204.07 103.753 201.019 106.185 202.497C107.996 203.641 109.998 206.454 109.808 208.313C109.617 210.029 106.661 211.46 104.039 213.796Z" fill="#193211"/>
<path fill-rule="evenodd" clip-rule="evenodd" d="M115.862 416.266C118.008 419.365 120.153 421.081 120.487 423.131C121.011 426.611 117.34 430.282 115.195 428.899C113.336 427.708 111.429 425.086 111.333 423.036C111.286 421.224 113.717 419.317 115.862 416.266Z" fill="#193211"/>
<path fill-rule="evenodd" clip-rule="evenodd" d="M166.158 71.1082C166.873 73.3965 167.588 74.7313 167.636 76.1616C167.731 78.7359 167.112 81.2149 164.203 82.0254C163.488 82.2161 161.867 81.5964 161.772 81.0719C161.343 78.8313 160.676 76.3046 161.295 74.2546C161.677 72.9674 164.203 72.3 166.158 71.1082Z" fill="#193211"/>
<path fill-rule="evenodd" clip-rule="evenodd" d="M84.159 233.389C79.9637 232.674 78.1999 229.671 79.4394 226.048C79.9161 224.57 82.0137 222.758 83.444 222.663C86.3521 222.52 89.3555 226.429 88.3067 229.051C87.5439 230.958 85.2555 232.293 84.159 233.389Z" fill="#193211"/>
<path fill-rule="evenodd" clip-rule="evenodd" d="M300.169 39.6444C302.076 34.9248 303.935 30.3481 305.938 25.4854C310.514 26.7249 310.038 30.062 309.418 32.6364C308.226 37.4515 306.319 38.5956 300.169 39.6444Z" fill="#193211"/>
<path fill-rule="evenodd" clip-rule="evenodd" d="M262.125 394.575C265.176 392.573 266.892 391.095 268.895 390.38C269.562 390.141 271.421 391.905 271.898 393.097C272.756 395.386 270.325 398.818 268.036 398.389C266.368 398.103 264.938 396.482 262.125 394.575Z" fill="#193211"/>
<path fill-rule="evenodd" clip-rule="evenodd" d="M175.454 163.691C177.409 166.027 179.411 167.457 179.602 169.03C179.745 170.031 177.075 172.367 175.74 172.272C174.263 172.177 171.974 170.222 171.784 168.792C171.593 167.505 173.738 165.931 175.454 163.691Z" fill="#193211"/>
<path fill-rule="evenodd" clip-rule="evenodd" d="M33.7681 208.886C32.5763 210.363 31.9089 211.984 30.86 212.318C29.7159 212.652 28.1903 211.746 26.8555 211.412C27.7613 209.934 28.381 208.17 29.6206 207.122C30.0496 206.74 31.9565 208.075 33.7681 208.933V208.886Z" fill="#193211"/>
<path fill-rule="evenodd" clip-rule="evenodd" d="M29.1441 106.814C26.9511 107.672 25.4255 108.768 23.9 108.768C22.9465 108.768 21.2779 107.386 21.0872 106.385C20.6105 104.192 24.043 101.713 26.093 102.762C27.1418 103.286 27.6662 104.812 29.1441 106.862V106.814Z" fill="#193211"/>
<path fill-rule="evenodd" clip-rule="evenodd" d="M52.6953 85.6973C53.4104 85.1252 54.0779 84.5531 54.793 83.9333C55.4127 84.9345 56.0325 85.9833 56.6522 86.9845C55.8418 87.3659 54.8406 88.2239 54.2686 87.9856C53.5534 87.6995 53.2197 86.5077 52.743 85.6973H52.6953Z" fill="#193211"/>
<path fill-rule="evenodd" clip-rule="evenodd" d="M393.753 378.317C392.561 377.363 391.464 376.505 390.416 375.695C390.988 375.17 391.56 374.312 392.179 374.312C393.038 374.312 394.325 374.741 394.611 375.361C394.897 375.981 394.182 377.077 393.8 378.317H393.753Z" fill="#193211"/>
<path fill-rule="evenodd" clip-rule="evenodd" d="M198.1 63.3366C197.671 62.5261 196.765 61.1912 196.908 61.0959C197.814 60.2854 198.958 59.8087 200.006 59.189C200.197 60.0471 200.865 61.1436 200.531 61.7157C200.102 62.4784 198.958 62.8121 198.1 63.3366Z" fill="#193211"/>
<path fill-rule="evenodd" clip-rule="evenodd" d="M25.2353 181.137C24.9969 181.995 24.7586 182.853 24.5202 183.664C23.4237 183.235 22.3272 182.758 21.2307 182.329C21.8028 181.566 22.2319 180.517 22.947 180.231C23.4714 179.993 24.4248 180.803 25.2353 181.137Z" fill="#193211"/>
<path fill-rule="evenodd" clip-rule="evenodd" d="M190.377 348.952C190.377 349.953 190.758 351.335 190.234 351.86C189.423 352.67 188.041 352.909 186.896 353.433C186.658 352.527 185.943 351.288 186.277 350.811C187.087 349.715 188.374 349.047 189.471 348.189L190.329 348.952H190.377Z" fill="#193211"/>
<path fill-rule="evenodd" clip-rule="evenodd" d="M159.198 298.704C157.673 299.228 156.147 299.705 154.621 300.229C154.526 299.657 154.431 299.085 154.335 298.561C156.052 298.704 157.768 298.799 159.484 298.942C159.532 298.942 159.151 298.656 159.151 298.656L159.198 298.704Z" fill="#193211"/>
<path fill-rule="evenodd" clip-rule="evenodd" d="M223.414 145.098C223.128 144.955 222.842 144.812 222.556 144.669C222.985 144.478 223.414 144.287 223.796 144.097C223.653 144.43 223.558 144.764 223.414 145.098Z" fill="#193211"/>
<path fill-rule="evenodd" clip-rule="evenodd" d="M515.273 176.658C514.844 176.848 514.415 177.039 513.986 177.23C513.843 176.61 513.652 176.038 513.509 175.418C513.986 175.466 514.51 175.418 514.892 175.657C515.13 175.8 515.13 176.324 515.225 176.658H515.273Z" fill="#193211"/>
</svg>
