<svg width="208" height="148" viewBox="0 0 208 148" fill="none" xmlns="http://www.w3.org/2000/svg">
<path d="M22.4932 39.8745L102.32 0.418368L177.641 9.46832L208.509 0.00020386L230.059 23.1117L213.373 60.5589L170.321 134.12L153.002 147.717L139.559 140.653L139.219 131.032L168.332 77.8577L110.848 69.0007L61.6812 93.9844L39.08 129.965L24.0209 130.498L19.6751 126.044L46.5671 81.1161L76.3768 65.403L50.8874 73.0056L42.1086 79.389L21.2108 92.4835L6.77914 92.9938L-9.28357e-05 84.8569L41.2951 56.382L73.1077 38.0849L41.1546 52.4081L18.6156 60.5346L8.65427 51.2537L11.1984 40.2739L22.4932 39.8745Z" fill="#FF2DFF"/>
</svg>
