<svg width="358" height="549" viewBox="0 0 358 549" fill="none" xmlns="http://www.w3.org/2000/svg">
<g clip-path="url(#clip0_20_4401)">
<rect width="358" height="549" fill="#FFFF00"/>
<path d="M180.205 533.912L17.905 460.348L162.763 356.574L180.205 533.912Z" fill="#FFFF00" stroke="#FF2DFF" stroke-width="18"/>
<path d="M153.404 336.074L13.1232 376.365L48.3702 234.734L153.404 336.074Z" fill="#FFFF00" stroke="#FF2DFF" stroke-width="18"/>
<path d="M341.279 505.418L234.567 536.067L261.379 428.328L341.279 505.418Z" fill="#FFFF00" stroke="#FF2DFF" stroke-width="18"/>
<path d="M299.774 413.801L192.531 385.065L271.038 306.558L299.774 413.801Z" fill="#FFFF00" stroke="#FF2DFF" stroke-width="18"/>
<path d="M234.962 307.941L127.718 279.206L206.225 200.698L234.962 307.941Z" fill="#FFFF00" stroke="#FF2DFF" stroke-width="18"/>
<path d="M342.209 205.793L234.966 234.529L263.701 127.286L342.209 205.793Z" fill="#FFFF00" stroke="#FF2DFF" stroke-width="18"/>
<path d="M299.133 319.996L265.851 248.217L344.654 255.284L299.133 319.996Z" fill="#FFFF00" stroke="#FF2DFF" stroke-width="18"/>
<path d="M77.7366 227.793L105.868 153.843L155.843 215.18L77.7366 227.793Z" fill="#FFFF00" stroke="#FF2DFF" stroke-width="18"/>
<path d="M151.848 168.238L179.979 94.2887L229.955 155.625L151.848 168.238Z" fill="#FFFF00" stroke="#FF2DFF" stroke-width="18"/>
<path d="M336.743 372.034L393.383 427.277L317.221 448.707L336.743 372.034Z" fill="#FFFF00" stroke="#FF2DFF" stroke-width="18"/>
<path d="M201.895 406.326L239.703 443.202L188.864 457.507L201.895 406.326Z" fill="#FFFF00" stroke="#FF2DFF" stroke-width="10"/>
<path d="M48.9999 493.189L86.8078 530.065L35.9685 544.371L48.9999 493.189Z" fill="#FFFF00" stroke="#FF2DFF" stroke-width="10"/>
<path d="M45.5567 378.568L59.2259 429.582L8.21162 415.914L45.5567 378.568Z" fill="#FFFF00" stroke="#FF2DFF" stroke-width="10"/>
<path d="M203.2 301.236L216.869 352.25L165.855 338.582L203.2 301.236Z" fill="#FFFF00" stroke="#FF2DFF" stroke-width="10"/>
<path d="M66.5167 142.498L80.1858 193.512L29.1716 179.844L66.5167 142.498Z" fill="#FFFF00" stroke="#FF2DFF" stroke-width="10"/>
<path d="M53.0113 194.587L20.0527 235.855L0.792772 186.678L53.0113 194.587Z" fill="#FFFF00" stroke="#FF2DFF" stroke-width="10"/>
<path d="M278.345 485.043C277.02 486.409 276.448 488.422 277.018 490.382L265.927 493.527C264.17 487.485 265.936 481.273 270.02 477.06L270.023 477.061L278.345 485.043L278.345 485.043Z" fill="black"/>
<path d="M298.784 484.189L287.692 487.334C287.123 485.375 285.555 483.968 283.699 483.506L286.469 472.375C292.194 473.807 297.027 478.147 298.784 484.189Z" fill="black"/>
<path d="M286.32 492.657L294.647 500.648C292.636 502.723 290.064 504.313 287.074 505.161C284.083 506.009 281.046 506.008 278.227 505.303L278.227 505.302L280.998 494.167C281.911 494.396 282.895 494.396 283.865 494.121C284.834 493.846 285.669 493.33 286.32 492.657Z" fill="black"/>
<path d="M253.325 361.504C252 362.87 251.428 364.883 251.998 366.842L240.907 369.988C239.15 363.946 240.916 357.734 245 353.521L245.003 353.522L253.325 361.504L253.325 361.504Z" fill="black"/>
<path d="M273.763 360.65L262.672 363.795C262.103 361.836 260.535 360.429 258.679 359.967L261.449 348.836C267.174 350.268 272.007 354.608 273.763 360.65Z" fill="black"/>
<path d="M261.3 369.118L269.627 377.109C267.616 379.183 265.044 380.774 262.054 381.622C259.063 382.47 256.026 382.469 253.207 381.764L253.207 381.763L255.978 370.628C256.891 370.857 257.875 370.857 258.844 370.582C259.814 370.307 260.649 369.791 261.3 369.118Z" fill="black"/>
<path d="M302.968 274.044C302.106 274.933 301.734 276.243 302.104 277.519L294.886 279.566C293.742 275.633 294.892 271.591 297.55 268.848L297.552 268.849L302.968 274.044L302.968 274.044Z" fill="black"/>
<path d="M316.269 273.488L309.051 275.535C308.68 274.26 307.66 273.345 306.452 273.044L308.254 265.799C311.981 266.731 315.126 269.556 316.269 273.488Z" fill="black"/>
<path d="M308.158 279.001L313.577 284.202C312.268 285.553 310.594 286.588 308.648 287.14C306.702 287.692 304.725 287.691 302.89 287.232L302.89 287.232L304.694 279.985C305.288 280.133 305.928 280.134 306.559 279.955C307.19 279.776 307.734 279.44 308.158 279.001Z" fill="black"/>
<path d="M195.298 328.656C194.747 329.224 194.51 330.06 194.746 330.874L190.139 332.181C189.409 329.671 190.143 327.091 191.84 325.34L191.841 325.341L195.298 328.656L195.298 328.656Z" fill="black"/>
<path d="M203.787 328.302L199.179 329.608C198.943 328.795 198.292 328.21 197.521 328.018L198.671 323.394C201.049 323.989 203.057 325.792 203.787 328.302Z" fill="black"/>
<path d="M198.61 331.822L202.069 335.141C201.234 336.003 200.165 336.664 198.923 337.016C197.681 337.368 196.419 337.368 195.248 337.075L195.248 337.075L196.399 332.449C196.779 332.544 197.187 332.544 197.59 332.43C197.993 332.316 198.34 332.101 198.61 331.822Z" fill="black"/>
<path d="M36.1929 405.985C35.6427 406.552 35.4051 407.388 35.6417 408.202L31.0344 409.509C30.3047 406.999 31.0382 404.419 32.7348 402.668L32.7361 402.669L36.1929 405.985L36.1929 405.985Z" fill="black"/>
<path d="M44.6819 405.63L40.0746 406.937C39.838 406.123 39.1869 405.538 38.4158 405.346L39.5663 400.722C41.9447 401.317 43.9523 403.12 44.6819 405.63Z" fill="black"/>
<path d="M39.5055 409.15L42.9645 412.469C42.1292 413.331 41.0607 413.992 39.8185 414.344C38.5762 414.696 37.3146 414.696 36.1436 414.403L36.1435 414.403L37.2946 409.777C37.6739 409.872 38.0826 409.872 38.4854 409.758C38.8882 409.644 39.235 409.429 39.5055 409.15Z" fill="black"/>
<path d="M350.275 413.97C349.725 414.537 349.487 415.374 349.724 416.188L345.117 417.494C344.387 414.984 345.12 412.404 346.817 410.654L346.818 410.654L350.275 413.97L350.275 413.97Z" fill="black"/>
<path d="M358.764 413.615L354.157 414.922C353.92 414.108 353.269 413.524 352.498 413.332L353.649 408.708C356.027 409.303 358.035 411.105 358.764 413.615Z" fill="black"/>
<path d="M353.588 417.135L357.047 420.455C356.211 421.316 355.143 421.977 353.901 422.33C352.658 422.682 351.397 422.681 350.226 422.389L350.226 422.388L351.377 417.763C351.756 417.857 352.165 417.858 352.568 417.743C352.97 417.629 353.317 417.415 353.588 417.135Z" fill="black"/>
<rect width="4.5172" height="12.712" transform="matrix(0.958652 -0.28458 0.28901 0.957326 206.15 424.426)" fill="black"/>
<rect width="4.5172" height="4.48313" transform="matrix(0.958652 -0.28458 0.28901 0.957326 210.636 439.286)" fill="black"/>
<rect width="18.4764" height="51.9817" transform="matrix(0.966466 0.256794 -0.260858 0.965377 124.786 401.713)" fill="black"/>
<rect width="18.4764" height="18.3323" transform="matrix(0.966466 0.256794 -0.260858 0.965377 108.233 462.995)" fill="black"/>
<rect width="15.53" height="43.802" transform="matrix(0.887035 -0.461702 0.467835 0.883816 49.2246 280.949)" fill="black"/>
<rect width="15.53" height="15.4476" transform="matrix(0.887035 -0.461702 0.467835 0.883816 74.2512 327.833)" fill="black"/>
<rect width="4.5172" height="12.712" transform="matrix(0.958652 -0.28458 0.28901 0.957326 52.6864 513.609)" fill="black"/>
<rect width="4.5172" height="4.48313" transform="matrix(0.958652 -0.28458 0.28901 0.957326 57.1726 528.47)" fill="black"/>
<rect width="9.35594" height="26.3693" transform="matrix(0.910456 0.413605 -0.419399 0.907802 196.404 241.844)" fill="black"/>
<rect width="9.35594" height="9.29964" transform="matrix(0.910456 0.413605 -0.419399 0.907802 182.901 271.074)" fill="black"/>
</g>
<defs>
<clipPath id="clip0_20_4401">
<rect width="358" height="549" fill="white"/>
</clipPath>
</defs>
</svg>
